<?xml version="1.0" standalone="no"?>
<!DOCTYPE svg PUBLIC "-//W3C//DTD SVG 20010904//EN"
 "http://www.w3.org/TR/2001/REC-SVG-20010904/DTD/svg10.dtd">
<svg version="1.0" xmlns="http://www.w3.org/2000/svg"
 width="449.000000pt" height="410.000000pt" viewBox="0 0 449.000000 410.000000"
 preserveAspectRatio="xMidYMid meet">
<metadata>
Created by potrace 1.15, written by Peter Selinger 2001-2017
</metadata>
<g transform="translate(0.000000,410.000000) scale(0.100000,-0.100000)"
fill="#000000" stroke="none">
<path d="M1076 4005 c-26 -9 -71 -47 -140 -118 -55 -57 -117 -111 -136 -119
-19 -9 -71 -31 -114 -49 -44 -18 -96 -47 -116 -65 -68 -61 -120 -212 -120
-348 0 -48 -2 -50 -92 -145 -108 -112 -166 -203 -203 -319 -47 -145 -56 -221
-62 -485 l-5 -248 25 -38 c28 -43 90 -77 158 -89 l44 -8 3 -777 2 -777 -34 0
c-54 0 -66 -20 -66 -106 0 -58 -3 -73 -13 -67 -18 11 -37 12 -37 2 0 -5 -12
-9 -27 -9 -25 -1 -63 -20 -63 -32 0 -8 100 -27 200 -37 157 -17 708 -33 1371
-40 l625 -6 62 -33 c39 -20 88 -36 130 -42 122 -17 671 -32 937 -25 444 11
602 26 630 59 6 7 39 27 75 43 52 25 89 34 180 43 141 15 190 27 190 45 0 16
-86 36 -165 38 l-52 2 -7 69 c-7 75 -18 96 -47 96 -18 0 -19 23 -19 774 l0
774 61 11 c84 14 145 46 174 89 24 36 25 41 25 229 0 466 -75 681 -319 916
l-71 69 0 62 c0 71 -21 161 -53 226 -36 74 -84 111 -202 160 -121 49 -177 89
-250 178 -27 33 -68 71 -90 84 l-40 23 -1155 2 c-964 2 -1161 0 -1194 -12z
m509 -384 c-3 -6 9 -9 27 -8 28 2 34 -2 36 -22 3 -20 1 -22 -15 -16 -10 5 -36
9 -58 9 -34 1 -40 -2 -43 -21 -3 -18 5 -24 53 -38 41 -11 59 -22 67 -40 13
-30 0 -68 -30 -84 -17 -9 -19 -6 -17 20 2 35 -17 59 -46 59 -48 0 -89 37 -89
79 0 27 45 65 70 58 11 -3 18 -1 14 4 -3 5 4 9 16 9 12 0 19 -4 15 -9z m968
-32 c43 -46 36 -150 -12 -186 -9 -6 -20 -9 -25 -6 -5 3 2 11 14 18 15 8 19 15
11 19 -6 4 -11 3 -11 -3 0 -5 -9 -13 -21 -16 -14 -5 -17 -10 -10 -19 19 -22
-57 -19 -95 4 -61 38 -71 140 -18 193 46 46 122 44 167 -4z m-597 -14 l6 -45
44 0 44 0 0 45 c0 41 2 45 25 45 l25 0 0 -120 0 -120 -25 0 c-24 0 -25 3 -25
55 l0 55 -50 0 -50 0 0 -55 c0 -52 -1 -55 -25 -55 l-25 0 0 120 0 120 24 0
c22 0 26 -6 32 -45z m1042 25 c51 -48 9 -130 -68 -130 l-40 0 0 -45 c0 -41 -2
-45 -25 -45 l-25 0 0 120 0 120 68 0 c55 0 73 -4 90 -20z m-2148 -449 c3 -1
83 -1 179 -1 138 1 172 -2 168 -12 -100 -228 -135 -429 -143 -808 -6 -258 -7
-261 -69 -300 -38 -24 -68 -28 -100 -15 l-20 8 20 -17 c19 -16 17 -16 -35 -13
-30 3 -66 7 -80 11 -21 5 -22 5 -5 -3 14 -7 15 -10 5 -10 -27 -1 -60 11 -54
20 3 5 -2 6 -11 3 -24 -10 -90 40 -110 82 -16 34 -17 60 -12 264 10 384 49
553 172 745 27 43 37 51 61 49 16 -1 31 -2 34 -3z m2064 -71 c24 -100 44 -241
55 -396 11 -142 14 -339 4 -316 -3 9 -55 12 -208 12 -180 0 -204 2 -209 17
-11 28 -26 1 -28 -51 -2 -31 -5 -41 -10 -29 -7 18 -39 654 -38 770 l0 63 203
2 c111 2 205 1 208 -2 4 -3 14 -34 23 -70z m786 68 c0 -5 5 -8 11 -8 5 0 8 4
4 10 -3 5 7 3 22 -5 53 -28 132 -177 168 -320 38 -147 72 -537 46 -521 -6 4
-11 21 -11 37 0 18 -4 28 -10 24 -5 -3 -10 -1 -10 4 0 8 -66 11 -199 11 -149
0 -202 3 -208 13 -5 8 -10 0 -14 -23 l-5 -35 -6 45 c-4 25 -11 113 -17 195
-14 182 -47 348 -94 474 -20 52 -34 97 -32 100 5 9 355 7 355 -1z m-1646 -131
c-3 -73 -12 -251 -19 -397 -8 -146 -14 -325 -14 -398 l0 -134 -35 -33 c-41
-38 -127 -68 -177 -62 -34 4 -34 4 6 6 22 1 45 5 52 9 6 4 -25 6 -69 5 -45 -2
-84 -6 -87 -9 -3 -4 6 -4 22 -2 15 3 27 1 27 -3 0 -11 -16 -11 -59 -3 -17 4
-28 11 -24 17 4 6 1 7 -6 3 -19 -12 -86 38 -104 77 -40 84 -4 741 53 971 11
43 20 80 20 82 0 2 95 3 210 3 l210 -1 -6 -131z m936 -831 c0 -59 -4 -80 -23
-107 -32 -49 -167 -111 -167 -77 0 10 -11 12 -42 9 l-43 -5 40 -7 c39 -6 39
-6 -14 -8 -118 -3 -209 59 -221 150 -4 28 -5 62 -2 75 l4 23 227 1 c137 0 227
4 229 10 8 24 12 5 12 -64z m965 -34 c-2 -29 -11 -62 -19 -73 -21 -31 -76 -68
-116 -79 -43 -12 -59 -13 -41 -1 9 6 -1 10 -33 12 -45 4 -64 -5 -28 -14 9 -2
-5 -4 -32 -5 -34 0 -45 3 -35 9 9 6 2 7 -20 2 -27 -5 -32 -3 -26 7 5 9 4 11
-4 6 -18 -12 -92 44 -108 81 -13 32 -18 109 -8 135 4 10 50 12 230 10 178 -2
225 0 226 10 0 7 5 0 10 -17 5 -16 7 -54 4 -83z m-3445 -308 c14 -1 61 -17
105 -37 l80 -36 3 -381 c2 -375 2 -380 -18 -380 -11 0 -20 -3 -21 -7 0 -5 -1
-37 -2 -73 l-2 -65 43 -3 c33 -2 42 -7 42 -22 0 -23 19 -30 86 -30 l54 0 -1
-77 c-1 -43 -4 -67 -6 -53 -3 14 -9 31 -15 37 -6 7 -8 20 -4 28 3 8 1 15 -5
15 -5 0 -12 -14 -16 -31 -4 -22 -8 -27 -14 -17 -7 10 -9 11 -9 0 0 -7 -4 -11
-8 -8 -16 9 -82 -15 -82 -29 0 -10 -11 -16 -32 -17 -50 -2 -50 -2 -93 -31 -22
-15 -44 -27 -48 -27 -5 0 -22 -9 -37 -20 -26 -19 -28 -19 -36 -2 -4 9 -9 255
-12 545 -4 497 2 752 17 731 3 -6 17 -10 31 -10z m2090 -76 l45 -13 3 -385 c2
-212 0 -494 -3 -627 l-7 -243 -239 0 c-227 0 -239 1 -239 19 0 11 -12 23 -30
31 -38 16 -52 33 -61 78 l-7 37 -2 -45 c-2 -34 -5 -24 -11 40 -6 62 -5 86 4
92 9 6 9 8 0 8 -6 0 -14 8 -16 18 -3 9 -6 -1 -7 -23 l-3 -40 -6 40 c-4 22 -5
43 -3 48 2 4 70 7 153 7 148 0 155 2 150 33 -1 5 8 11 19 14 18 5 20 13 20 79
0 67 -2 74 -20 74 -20 0 -20 7 -20 383 l0 382 62 30 61 31 56 -28 c31 -15 76
-33 101 -40z m1296 48 c11 -8 44 -22 74 -32 30 -9 61 -21 68 -27 9 -7 12 -110
12 -452 0 -561 -8 -805 -27 -805 -8 0 -14 14 -15 43 l-1 42 -4 -42 -4 -43
-118 0 -118 0 -7 61 c-3 34 -6 322 -6 640 l0 578 43 24 c49 29 75 32 103 13z
m-1688 -428 l-3 -373 -45 -3 c-57 -4 -112 6 -104 19 3 5 1 15 -4 22 -5 7 -12
26 -15 42 -2 17 -12 56 -21 88 -9 33 -16 96 -16 146 0 83 -1 88 -24 99 -21 9
-23 15 -18 59 3 26 8 50 12 53 4 3 14 23 22 45 18 52 55 112 73 119 8 3 15 14
15 25 0 21 18 27 93 30 l38 1 -3 -372z m1400 -612 l2 -258 -137 4 c-96 3 -146
9 -165 19 -23 14 -24 16 -10 27 16 10 16 11 0 11 -10 1 -18 9 -18 19 0 14 -2
15 -10 2 -14 -22 -13 106 2 168 6 28 24 65 40 84 15 18 28 36 28 40 0 9 108
90 150 112 19 11 42 23 50 27 8 5 26 7 40 6 l25 -2 3 -259z m-1608 -13 c0 -33
-3 -43 -9 -34 -9 15 -15 -3 -24 -84 -2 -16 -5 5 -6 47 -1 89 -21 120 -21 33 0
-32 -4 -54 -9 -50 -5 3 -12 -3 -14 -12 -3 -10 -3 3 0 30 4 47 -12 67 -20 25
-2 -13 -5 -3 -7 22 -1 25 -4 37 -7 28 -2 -10 -8 -18 -11 -18 -4 0 -7 -19 -6
-42 1 -24 -1 -31 -3 -15 -2 15 -9 25 -14 22 -5 -4 -9 15 -9 43 l0 49 80 2 80
2 0 -48z"/>
<path d="M2426 3568 c-23 -33 -21 -113 3 -135 40 -37 52 -45 58 -39 4 3 3 6
-1 6 -4 0 4 14 18 31 30 35 34 84 11 129 -20 38 -66 42 -89 8z"/>
<path d="M625 2395 l4 -60 -13 45 -14 45 -1 -50 c-1 -27 -2 -68 -4 -90 -1 -22
1 -41 6 -42 4 -2 104 -3 222 -3 l215 0 0 70 0 70 -202 2 -203 3 -7 35 c-4 23
-5 15 -3 -25z"/>
<path d="M1591 2380 c-3 -43 -3 -44 -14 -19 -11 24 -12 19 -14 -47 l-3 -74
225 0 225 0 0 39 c0 21 -3 53 -6 70 l-6 31 -199 0 c-197 0 -198 0 -202 23 -2
12 -5 2 -6 -23z"/>
</g>
</svg>
